<svg xmlns="http://www.w3.org/2000/svg" viewBox="-40 0 178.5 142">
    <g>
        <path d="M49 141.7c-.2 0-.5-.1-.7-.2L1.6 113c-.5-.3-.7-.9-.6-1.4l14.3-63.5c0-.2.1-.3.2-.5L48 .9c.2-.4.7-.6 1.1-.6.4 0 .8.2 1.1.6l32.5 46.7c.1.1.2.3.2.5L97 111.6c.1.6-.1 1.1-.6 1.4l-46.7 28.5c-.2.1-.4.2-.7.2zM3.8 111.2L49 138.8l45.2-27.6-13.9-62.3L49 4 17.8 48.9l-14 62.3z"/>
        <path d="M49 141.7c-.6 0-1.1-.4-1.3-.9l-32.4-92c-.2-.7.1-1.4.8-1.7.7-.2 1.4.1 1.7.8L49 136.4 80.3 48c.2-.7 1-1.1 1.7-.8.7.2 1.1 1 .8 1.7l-32.5 91.9c-.2.5-.7.9-1.3.9z"/>
    </g>
</svg>
