<svg xmlns="http://www.w3.org/2000/svg" width="200" height="200" viewBox="0 0 178.5 142" fill="#010101" xmlns:v="https://vecta.io/nano"><path d="M89.2 45.7c-5.4 0-10.5-2.1-14.3-5.9S69 30.9 69 25.5c0-11.1 9.1-20.2 20.2-20.2s20.2 9.1 20.2 20.2-9 20.2-20.2 20.2zm0-37.4C79.8 8.3 72 16 72 25.5c0 4.6 1.8 8.9 5 12.2 3.3 3.3 7.6 5 12.2 5 9.5 0 17.2-7.7 17.2-17.2S98.7 8.3 89.2 8.3zM150.5 84c-11.1 0-20.2-9.1-20.2-20.2s9.1-20.2 20.2-20.2 20.2 9.1 20.2 20.2c0 11.2-9 20.2-20.2 20.2zm0-37.4c-9.5 0-17.2 7.7-17.2 17.2S141 81 150.5 81s17.2-7.7 17.2-17.2-7.7-17.2-17.2-17.2zm24.8 90.1h-49.5a1.54 1.54 0 0 1-1.5-1.5v-32.8c0-4.1 5.6-14.3 12.9-14.3h26.7c7.3 0 12.9 10.1 12.9 14.3v32.8a1.54 1.54 0 0 1-1.5 1.5zm-48-3h46.5v-31.3c0-2.7-4.6-11.3-9.9-11.3h-26.7c-5.3 0-9.9 8.6-9.9 11.3v31.3zM28 84C16.8 84 7.8 75 7.8 63.8c0-11.1 9.1-20.2 20.2-20.2s20.2 9.1 20.2 20.2C48.2 75 39.1 84 28 84zm0-37.4c-9.5 0-17.2 7.7-17.2 17.2S18.5 81 28 81s17.2-7.7 17.2-17.2S37.5 46.6 28 46.6zm24.7 90.1H3.2a1.54 1.54 0 0 1-1.5-1.5v-32.8c0-4.1 5.6-14.3 12.9-14.3h26.7c7.3 0 12.9 10.1 12.9 14.3v32.8a1.54 1.54 0 0 1-1.5 1.5zm-48-3h46.5v-31.3c0-2.7-4.6-11.3-9.9-11.3H14.6c-5.3 0-9.9 8.6-9.9 11.3v31.3zM114 98.4H64.5a1.54 1.54 0 0 1-1.5-1.5V64.1c0-4.1 5.6-14.3 12.9-14.3h26.7c7.3 0 12.9 10.1 12.9 14.3v32.8a1.54 1.54 0 0 1-1.5 1.5zm-48-3h46.5V64.1c0-2.7-4.6-11.3-9.9-11.3H75.9c-5.3 0-9.9 8.6-9.9 11.3v31.3z"/></svg>