<svg xmlns="http://www.w3.org/2000/svg" width="150" height="142" viewBox="0 0 150 142" fill="#010101" xmlns:v="https://vecta.io/nano"><path d="M83.6 132H21.3a1.54 1.54 0 0 1-1.5-1.5V14.7a1.54 1.54 0 0 1 1.5-1.5h48.6c4.3 0 7.8 1.4 10.5 4.1 5 5.1 4.8 13.2 4.8 13.6v99.7c-.1.7-.7 1.4-1.6 1.4zm-60.8-3h59.4V30.8c0-.1.1-7.2-4-11.4-2-2.1-4.8-3.1-8.3-3.1H22.8V129z"/><path d="M146.3 132H83.9a1.54 1.54 0 0 1-1.5-1.5V30.8c0-.3-.2-8.4 4.8-13.5 2.6-2.7 6.1-4.1 10.5-4.1h48.6a1.54 1.54 0 0 1 1.5 1.5v115.8a1.54 1.54 0 0 1-1.5 1.5zm-60.9-3h59.4V16.2H97.7c-3.5 0-6.3 1.1-8.3 3.2-4.1 4.2-4 11.3-4 11.4V129zM68.8 60.2H33.6a1.54 1.54 0 0 1-1.5-1.5V33a1.54 1.54 0 0 1 1.5-1.5h35.2a1.54 1.54 0 0 1 1.5 1.5v25.7a1.54 1.54 0 0 1-1.5 1.5zm-33.7-3h32.2V34.5H35.1v22.7zm35.6 26.7H33.6a1.54 1.54 0 0 1-1.5-1.5 1.54 1.54 0 0 1 1.5-1.5h37.1a1.54 1.54 0 0 1 1.5 1.5 1.54 1.54 0 0 1-1.5 1.5zm0 23.8H31.6a1.54 1.54 0 0 1-1.5-1.5 1.54 1.54 0 0 1 1.5-1.5h39.1a1.54 1.54 0 0 1 1.5 1.5 1.54 1.54 0 0 1-1.5 1.5zm66.5-69.8H100a1.54 1.54 0 0 1-1.5-1.5 1.54 1.54 0 0 1 1.5-1.5h37.1a1.54 1.54 0 0 1 1.5 1.5c0 .8-.6 1.5-1.4 1.5zm0 23.7H98.1a1.54 1.54 0 0 1-1.5-1.5 1.54 1.54 0 0 1 1.5-1.5h39.1a1.54 1.54 0 0 1 1.5 1.5 1.54 1.54 0 0 1-1.5 1.5zm0 23.7H100a1.54 1.54 0 0 1-1.5-1.5 1.54 1.54 0 0 1 1.5-1.5h37.1a1.54 1.54 0 0 1 1.5 1.5c0 .8-.6 1.5-1.4 1.5zm0 23.8H98.1a1.54 1.54 0 0 1-1.5-1.5 1.54 1.54 0 0 1 1.5-1.5h39.1a1.54 1.54 0 0 1 1.5 1.5 1.54 1.54 0 0 1-1.5 1.5z"/></svg>