<svg xmlns="http://www.w3.org/2000/svg" width="172" height="108" viewBox="0 0 172 108">
    <path d="M55.3 107.1c-.4 0-.8-.1-1-.4L.8 54.4c-.3-.3-.4-.7-.5-1.1 0-.4.2-.8.4-1.1L51.6 1.3c.6-.6 1.5-.6 2.1 0 .6.6.6 1.5 0 2.1L4 53.3l52.4 51.2c.6.6.6 1.5 0 2.1-.3.4-.7.5-1.1.5zm61.4 0c-.4 0-.8-.2-1.1-.5-.6-.6-.6-1.5 0-2.1L168 53.3 118.2 3.5c-.6-.6-.6-1.5 0-2.1.6-.6 1.5-.6 2.1 0l50.9 50.9c.3.3.4.7.4 1.1 0 .4-.2.8-.5 1.1l-53.5 52.3c-.2.2-.6.3-.9.3zM59.8 92.5c-.2 0-.3 0-.5-.1-.8-.3-1.2-1.1-.9-1.9l28-80.2c.3-.8 1.1-1.2 1.9-.9.8.3 1.2 1.1.9 1.9l-28 80.2c-.2.6-.8 1-1.4 1z"/>
</svg>
