<svg xmlns="http://www.w3.org/2000/svg" width="174" height="142" viewBox="0 0 174 142" fill="#010101" xmlns:v="https://vecta.io/nano"><path d="M163.3 109.7h-19.2c-.4 0-.8-.2-1.1-.5s-.4-.7-.4-1.1l1.7-45.1-59 25.8c-.4.2-.8.2-1.2 0L14.5 57.6c-3.2-1.2-5.3-4.4-5.3-8s2.1-6.8 5.4-8.1l69.6-31.1c.4-.2.8-.2 1.2 0L155 41.5c3.5 1 5.4 4.5 5.4 7.4 0 .2 0 .3-.1.5l-2.3 6.5 6.8 52.2c.1.4-.1.9-.4 1.2-.2.2-.7.4-1.1.4zm-17.6-3h15.9L155 55.8c0-.2 0-.5.1-.7l2.4-6.5c-.1-1.5-1.1-3.7-3.3-4.2-.1 0-.2 0-.2-.1L84.8 13.4 15.7 44.3c-2.6 1-3.6 3.4-3.6 5.3s.9 4.3 3.5 5.3l69.2 30.9 60.5-26.5c.5-.2 1-.2 1.4.1s.7.8.7 1.3l-1.7 46zM159 48.8h0zm-74.5 82.9c-1.1 0-2.3-.2-3.2-.7l-36.9-14.8c-3.3-.9-5.5-4.1-5.5-8.1V83.7c0-.5.3-1 .7-1.3s1-.3 1.4-.1l43.1 19L128 81.6c.5-.2 1-.2 1.4.1s.7.8.7 1.3v25.2c0 3.5-1.8 6.3-5.3 8 0 0-.1 0-.1.1l-37 14.8c-1 .4-2.1.6-3.2.6zM41.8 86v22.2c0 2.2 1 4.6 3.3 5.2.1 0 .1 0 .2.1l37.1 14.8s.1 0 .1.1c1.1.5 2.8.5 3.9 0 0 0 .1 0 .1-.1l37-14.8c2.4-1.2 3.6-2.9 3.6-5.3V85.3l-42.4 19.1c-.4.2-.8.2-1.2 0L41.8 86z"/></svg>