<svg xmlns="http://www.w3.org/2000/svg" viewBox="0 0 174 142" xmlns:v="https://vecta.io/nano"><path d="M101.6 129.8c-2.2 0-4.3-.3-6.5-.8l-8.2-2.1-8.2 2.1a27.55 27.55 0 0 1-6.5.8c-7.2 0-13.9-2.7-19-7.7-13.9-13.5-21.9-32.4-21.9-51.8 0-19.8 16.2-35.9 36.2-35.9 5 0 10 .6 14.8 1.7 0-.9.1-1.8.3-2.7-2.4.6-4.8.9-7.2.9-10 0-19.4-5-25.1-13.4L48 17.4c-.3-.4-.3-.9-.2-1.3s.5-.8.9-.9l3.9-1.4c3.1-1.2 6.4-1.7 9.9-1.7 9.1 0 17.7 4.2 23.2 11.1 2.7-4.6 6.7-8.3 11.5-10.7.4-.2.8-.2 1.2-.1s.7.4.9.8l2.8 5.7c.4.7.1 1.6-.7 2-5.9 2.9-9.7 8.6-10.1 15.1 4.8-1.1 9.8-1.7 14.8-1.7 19.9 0 36.2 16 36.2 35.8 0 19.4-7.7 37.7-21.6 51.5l-.2.2c-4.8 5.2-11.7 8-18.9 8zM87 123.9h.4l8.5 2.2c8.2 2.1 16.9-.5 22.6-6.2l.3-.3c13.4-13.2 20.7-30.8 20.7-49.4 0-18.1-14.9-32.8-33.2-32.8-5.1 0-10.2.6-15.2 1.9H91l-.8.1c-.4.1-.9-.1-1.2-.3-.3-.3-.5-.7-.5-1.1v-.6c0-7.7 4-14.6 10.5-18.3l-1.5-3c-4.4 2.5-7.9 6.3-10 10.8-.2.5-.7.8-1.3.9-.5 0-1.1-.2-1.4-.7-4.8-7.3-13.3-11.8-22.2-11.8-3.1 0-6.1.5-8.9 1.6l-2.2.8 1.2 1.8c6.8 10 19.4 14.6 31.3 10.6.5-.2 1.1 0 1.5.3.4.4.6.9.4 1.5-.5 1.9-.7 3.9-.7 5.9v.6c0 .5-.3 1-.7 1.3s-1 .3-1.5.1l-.6-.3a63.45 63.45 0 0 0-15-1.8c-18.3 0-33.2 14.8-33.2 32.9 0 18.6 7.6 36.7 20.9 49.6 4.5 4.4 10.5 6.8 16.9 6.8 2 0 4-.3 5.7-.7l8.6-2.2c.5-.2.6-.2.7-.2z" fill="#010101"/></svg>