<svg xmlns="http://www.w3.org/2000/svg" viewBox="0 0 174 142" xmlns:v="https://vecta.io/nano"><path d="M119.3 126.6c-6.2 0-12.4-2.4-17-7-6.3-6.3-8.5-15.6-5.9-24L61 60.1c-8.4 2.6-17.8.3-24-5.9-7-6.9-9-17.6-5-26.6a1.44 1.44 0 0 1 1.1-.9 1.48 1.48 0 0 1 1.3.4l12.7 12.7c1.2 1.2 2.9 1.9 4.7 1.9s3.4-.7 4.7-1.9c2.6-2.6 2.6-6.7 0-9.3L43.7 17.8a1.48 1.48 0 0 1-.4-1.3 1.44 1.44 0 0 1 .9-1.1c9-4 19.7-2 26.6 5 6.3 6.3 8.5 15.6 5.9 24l35.4 35.4c8.4-2.6 17.8-.3 24 5.9 6.9 6.9 8.9 17.6 5 26.6a1.44 1.44 0 0 1-1.1.9 1.48 1.48 0 0 1-1.3-.4L126 100.1c-2.6-2.6-6.7-2.6-9.3 0s-2.6 6.8 0 9.3l12.7 12.7c.4.3.5.8.4 1.3a1.44 1.44 0 0 1-.9 1.1c-3 1.4-6.3 2.1-9.6 2.1zM61.4 56.9c.4 0 .8.2 1.1.4L99.2 94c.4.4.5 1 .4 1.6-2.7 7.6-.7 16.1 4.9 21.8 5.5 5.5 13.8 7.5 21.2 5.1l-11-11c-3.7-3.7-3.7-9.8 0-13.6 3.7-3.7 9.8-3.7 13.6 0l11 11c2.3-7.4.4-15.6-5.1-21.2-5.7-5.7-14.2-7.6-21.8-4.9-.5.2-1.2.1-1.6-.4L74 45.9c-.4-.4-.5-1-.4-1.6 2.7-7.6.7-16.1-4.9-21.8-5.5-5.5-13.8-7.5-21.2-5.1l11 11c3.7 3.7 3.7 9.8 0 13.6-1.8 1.8-4.2 2.8-6.8 2.8s-5-1-6.8-2.8l-11-11c-2.3 7.4-.4 15.6 5.1 21.2 5.7 5.7 14.2 7.6 21.8 4.9.3-.1.4-.2.6-.2z" fill="#010101"/></svg>